<svg width="64" height="64" viewBox="0 0 64 64" fill="none" xmlns="http://www.w3.org/2000/svg">
<path d="M50.6667 50.6667H13.3333V13.3333H29.3333V8H13.3333C11.9201 8.00414 10.566 8.56737 9.56667 9.56667C8.56737 10.566 8.00414 11.9201 8 13.3333V50.6667C8.00414 52.0799 8.56737 53.434 9.56667 54.4333C10.566 55.4326 11.9201 55.9959 13.3333 56H50.6667C52.0799 55.9959 53.434 55.4326 54.4333 54.4333C55.4326 53.434 55.9959 52.0799 56 50.6667V40H50.6667V50.6667Z" fill="white"/>
<path d="M42 15.3333H54V29.3333C54 29.5101 53.9298 29.6797 53.8047 29.8047C53.6797 29.9298 53.5101 30 53.3333 30H42.6667C42.4899 30 42.3203 29.9298 42.1953 29.8047C42.0702 29.6797 42 29.5101 42 29.3333V15.3333Z" stroke="white" stroke-width="4"/>
<path d="M58.6667 8H53.3333L51.8107 5.33333H44.1893L42.6667 8H37.3333V10.6667H58.6667V8Z" fill="white"/>
</svg>
