<svg width="64" height="64" viewBox="0 0 64 64" fill="none" xmlns="http://www.w3.org/2000/svg">
<path d="M53.3545 7.5678L53.3545 7.56782L53.3604 7.57373L56.4263 10.6396L57.4869 9.57902L56.4322 10.6455C56.6649 10.8756 56.8496 11.1496 56.9757 11.4516C57.1018 11.7536 57.1667 12.0776 57.1667 12.4048C57.1667 12.732 57.1018 13.056 56.9757 13.358C56.8496 13.66 56.6649 13.934 56.4322 14.1641L56.4322 14.1641L56.4263 14.17L42.763 27.8333H36.1667V21.237L49.83 7.57373L49.83 7.57374L49.8359 7.5678C50.066 7.33511 50.34 7.15038 50.642 7.02431C50.944 6.89824 51.268 6.83332 51.5952 6.83332C51.9225 6.83332 52.2465 6.89824 52.5484 7.02431C52.8504 7.15038 53.1244 7.33511 53.3545 7.5678ZM41.5448 26.7012H42.1661L42.6055 26.2619L51.8029 17.0644L52.8636 16.0037L51.8029 14.9431L49.0569 12.1972L47.9963 11.1366L46.9356 12.1972L37.7382 21.3945L37.2988 21.8339V22.4552V25.2012V26.7012H38.7988H41.5448Z" stroke="white" stroke-width="3"/>
<path d="M50.6667 50.6667H13.3333V13.3333H29.3333V8H13.3333C11.9201 8.00414 10.566 8.56737 9.56667 9.56667C8.56737 10.566 8.00414 11.9201 8 13.3333V50.6667C8.00414 52.0799 8.56737 53.434 9.56667 54.4333C10.566 55.4326 11.9201 55.9959 13.3333 56H50.6667C52.0799 55.9959 53.434 55.4326 54.4333 54.4333C55.4326 53.434 55.9959 52.0799 56 50.6667V34.6667H50.6667V50.6667Z" fill="white"/>
</svg>
